<?xml version="1.0" encoding="UTF-8" standalone="no"?>
<!DOCTYPE svg PUBLIC "-//W3C//DTD SVG 1.1//EN" "http://www.w3.org/Graphics/SVG/1.1/DTD/svg11.dtd">
<svg width="100%" height="100%" viewBox="0 0 619 626" version="1.1" xmlns="http://www.w3.org/2000/svg" xmlns:xlink="http://www.w3.org/1999/xlink" xml:space="preserve" xmlns:serif="http://www.serif.com/" style="fill-rule:evenodd;clip-rule:evenodd;stroke-miterlimit:2;">
    <g transform="matrix(1,0,0,1,-1490,-1764)">
        <g id="Logo-BW-Negative" transform="matrix(1,0,0,1,-0.68305,-0.523575)">
            <rect x="1490.68" y="1764.52" width="618.634" height="625.554" style="fill:none;"/>
            <clipPath id="_clip1">
                <rect x="1490.68" y="1764.52" width="618.634" height="625.554"/>
            </clipPath>
            <g clip-path="url(#_clip1)">
                <g id="BW-Negative-Logo" serif:id="BW Negative Logo" transform="matrix(1,0,0,1,1050.68,1324.36)">
                    <g transform="matrix(0.790319,0,0,0.790319,218.756,220.267)">
                        <path d="M1015.05,1030.89L1032.8,1030.89L1032.8,309.664L311.576,309.664L311.576,1030.89L661.331,1030.89" style="fill:none;stroke:white;stroke-width:5.27px;"/>
                    </g>
                    <g transform="matrix(1,0,0,1,-1050,-1323.84)">
                        <path d="M2070.96,2373.84L2100,2373.84L2100,1773.84L1500,1773.84L1500,2373.84L1791.42,2373.84" style="fill:none;stroke:white;stroke-width:8.33px;"/>
                    </g>
                    <g transform="matrix(0.325424,0,0,0.325424,672.073,983.279)">
                        <text x="233.712px" y="217.351px" style="font-family:'TrebuchetMS', 'Trebuchet MS', sans-serif;font-size:147.244px;fill:white;">architecture</text>
                    </g>
                    <g transform="matrix(3.70467,0,0,3.70467,-3209.34,-752.421)">
                        <text x="1001.97px" y="422.504px" style="font-family:'CambriaMath', 'Cambria Math', serif;font-size:42.739px;fill:white;">w<tspan x="1034.28px 1055.15px " y="422.504px 422.504px ">as</tspan>her</text>
                    </g>
                </g>
            </g>
        </g>
    </g>
</svg>
