<?xml version="1.0" encoding="UTF-8" standalone="no"?>
<!DOCTYPE svg PUBLIC "-//W3C//DTD SVG 1.1//EN" "http://www.w3.org/Graphics/SVG/1.1/DTD/svg11.dtd">
<svg width="100%" height="100%" viewBox="0 0 619 626" version="1.1" xmlns="http://www.w3.org/2000/svg" xmlns:xlink="http://www.w3.org/1999/xlink" xml:space="preserve" xmlns:serif="http://www.serif.com/" style="fill-rule:evenodd;clip-rule:evenodd;stroke-linecap:round;stroke-miterlimit:2;">
    <g transform="matrix(1,0,0,1,-1490,-657)">
        <g id="Logo-Color-Negative" transform="matrix(1,0,0,1,-0.68305,-0.564721)">
            <rect x="1490.68" y="657.565" width="618.634" height="625.554" style="fill:none;"/>
            <clipPath id="_clip1">
                <rect x="1490.68" y="657.565" width="618.634" height="625.554"/>
            </clipPath>
            <g clip-path="url(#_clip1)">
                <g id="Color-Negative-Logo" serif:id="Color Negative Logo" transform="matrix(1,0,0,1,1050.68,217.446)">
                    <g transform="matrix(1.1013,0,0,5.32671,-78.7581,-6959.22)">
                        <rect x="412.019" y="1378.4" width="681.011" height="140.8" style="fill:rgb(71,96,102);"/>
                    </g>
                    <g transform="matrix(0.831914,0,0,0.831914,190.795,192.386)">
                        <rect x="311.576" y="309.664" width="721.228" height="721.228" style="fill:none;stroke:white;stroke-width:10.02px;"/>
                    </g>
                    <g transform="matrix(0.790319,0,0,0.790319,218.756,220.267)">
                        <rect x="311.576" y="309.664" width="721.228" height="721.228" style="fill:none;stroke:white;stroke-width:5.27px;"/>
                    </g>
                    <g transform="matrix(1.00846,0,0,1,-5.3011,0)">
                        <rect x="740.454" y="1016.97" width="277.201" height="49.269" style="fill:rgb(71,96,102);"/>
                    </g>
                    <g transform="matrix(0.325424,0,0,0.325424,672.073,983.279)">
                        <text x="233.712px" y="217.351px" style="font-family:'TrebuchetMS', 'Trebuchet MS', sans-serif;font-size:147.244px;fill:white;">architecture</text>
                    </g>
                    <g transform="matrix(3.70467,0,0,3.70467,-3209.34,-752.421)">
                        <text x="1001.97px" y="422.504px" style="font-family:'CambriaMath', 'Cambria Math', serif;font-size:42.739px;fill:rgb(255,157,0);">w<tspan x="1034.28px 1055.15px " y="422.504px 422.504px ">as</tspan>her</text>
                    </g>
                </g>
            </g>
        </g>
    </g>
</svg>
